<svg xmlns="http://www.w3.org/2000/svg" xmlns:xlink="http://www.w3.org/1999/xlink" version="1.1" id="图层_1" x="0px" y="0px" viewBox="0 0 242.3 58.4" style="enable-background:new 0 0 242.3 58.4;" xml:space="preserve">
<style type="text/css">
	.st0{fill:#DD562E;}
</style>
    <g>
	<path class="st0" d="M0,58.4h44.2V50H0V58.4z M133.3,36.9h10.2V32h-10.2V36.9z M103.2,23.6v19.1l0,0c-1.1,0.8-2.4,1.4-3.8,1.8   c-1.9,0.5-3.8,0.6-5-1.4l-0.3-0.7l-0.1-0.2l0-0.3l0-0.3l0-0.3l0-0.3l0-0.4l0-0.4l0-0.4l0-0.4l0-0.4l0-0.4V23.6h-5.5v16.5l0,0.6   l0,0.6l0,0.6l0.1,0.5l0.1,0.5l0.1,0.5l0.1,0.5l0.1,0.5l0.1,0.5l0.2,0.5l0.5,1l0.6,0.9l0.7,0.7c1.8,1.3,3.4,1.9,5.6,1.9   c2.3,0,4.6-0.4,6.6-1.6l0,0v1.6h5.5V23.6H103.2z M111.3,23.6v26.3h5.5V31.1l0,0l0.4-0.3l0.4-0.3l0.4-0.3l0.4-0.2l0.4-0.2   c2.4-1.2,6.2-2.2,7.1,1.3l0.1,0.3l0.1,0.3l0,0.3l0,0.4l0,0.4l0,0.4l0,0.4l0,0.4l0,0.4l0,0.4l0,0.4v14.9h5.5V33.3l0-0.6l0-0.6l0-0.6   l-0.1-0.5l-0.1-0.5l-0.1-0.5l-0.1-0.5c-2-6.3-9.6-7.6-14.4-4v-1.9H111.3z M189.3,23.6v26.3h5.5V31.8c2.8-2.2,6.7-3,10.1-2.3v-5.8   c-3.6-0.5-7.1,0.6-10.1,2.6l0,0v-2.7H189.3z M172.4,42.8c-0.3-0.9-0.2-1.7,0.1-2.4c0.3-0.6,0.9-1.2,1.5-1.6   c2.2-1.4,5.1-1.4,7.6-1.6l0,0v5.4l-0.3,0.2l-0.3,0.2c-1.4,1-2.8,1.8-4.6,2c-0.3,0-0.5,0-0.8,0C174.3,45,173,44.4,172.4,42.8    M177.2,23.3c-3,0-6.1,0.6-8.6,1.3v5.7c3.9-1.4,12.2-4.7,13.1,1.3l0,0.3l-0.2,0l-0.5,0c-2.3,0.2-4.6,0.4-6.8,0.8   c-3.7,0.9-6.7,3.2-7.4,7c-0.3,2.1-0.1,3.8,0.6,5.7c1.4,2.4,3,3.4,5.7,4.1c2.2,0.3,4,0.1,6.1-0.5c0.9-0.4,1.8-0.7,2.6-1.3v1.9h5.5   V32.4C187.2,25.3,182.5,23.3,177.2,23.3C177.2,23.3,177.2,23.3,177.2,23.3 M221.9,18.6v31.3h5.5V31.1l0,0c2.3-1.8,7.4-4.5,8.9-0.3   l0.1,0.2l0.1,0.3l0.1,0.3l0,0.3l0,0.4l0,0.4l0,0.4l0,0.4l0,0.4l0,0.4l0,0.4l0,0.4v14.9h5.5V33.3l0-0.6l0-0.6l0-0.6l-0.1-0.5   l-0.1-0.5l-0.1-0.5c-0.9-3.8-3.7-6-7.1-6.5c-2.7-0.4-5.3,0.3-7.5,1.9v-6.9H221.9z M207,18.6v23c0.2,7.1,4.6,8.1,8.9,8.2h4.3v-4.6   c-1.7,0.3-4.1,0.2-5.7-0.7c-2-1.1-1.9-2.7-2-4.7V28.6h7.7v-5h-7.7v-5H207z M145.2,18.6v31.3h19.9v-4.8h-14.5v-8.3h14.5v-5.1h-14.5   v-8.1h14.5v-5H145.2z M65.9,22.8l-0.2,0.4l-0.2,0.4L65.3,24l-0.2,0.5L65,24.9l-0.1,0.5l-0.1,0.5l-0.1,0.5l0,0.5l0,0.5l0,0.8   l0.1,0.8l0.1,0.8l0.2,0.7l0.3,0.7l0.3,0.7l0.4,0.6l0.4,0.6l0.3,0.3l0.3,0.3l0.3,0.2l0.3,0.2l0.3,0.2l0.3,0.2l0.3,0.2L69,35l0.4,0.2   l0.4,0.2l0.4,0.2l0.4,0.2l0.4,0.1l0.4,0.1l0.4,0.1l0.4,0.1l0.4,0.1l0.4,0.1l0.4,0.1l0.4,0.1l0.4,0.1l0.4,0.1l0.4,0.1l0.4,0.1   l0.4,0.1l0.4,0.1l0.4,0.1l0.3,0.1l0.3,0.1l0.3,0.1l0.3,0.1l0.3,0.1l0.4,0.1l0.4,0.1l0.3,0.1l0.3,0.1l0.2,0.1l0.7,0.7l0.4,0.8   l0.1,0.9l-0.1,0.9l-0.3,0.9l-0.5,0.8l-0.7,0.7l-0.9,0.5L78,44.6l-0.7,0.2l-0.8,0.1l-0.8,0l-0.8,0l-0.8-0.1l-0.8-0.1l-0.8-0.2   l-0.8-0.2L70.8,44L70,43.7l-0.8-0.3L68.5,43l-0.7-0.4l-0.6-0.4l-0.6-0.4l-0.7-0.6h-1.4v6.3l1.1,0.5l0.6,0.3l0.6,0.3l0.8,0.3   l0.8,0.3l0.9,0.2l0.9,0.2l1,0.2l1,0.1l1,0.1l1,0.1l1,0l1,0l1-0.1l0.9-0.1l0.9-0.2l0.8-0.2l0.8-0.3l0.7-0.3l0.5-0.3l0.4-0.3l0.4-0.3   l0.4-0.3l0.4-0.3l0.3-0.3l0.4-0.5l0.4-0.5l0.3-0.5l0.3-0.5l0.3-0.5l0.2-0.5l0.2-0.6l0.2-0.6l0.1-0.5l0.1-0.5l0.1-0.5l0-0.5l0-0.5   l0-0.8l-0.1-0.8L86.3,38l-0.2-0.7l-0.2-0.7L85.6,36l-0.4-0.6l-0.4-0.5l-0.4-0.5l-0.5-0.4l-0.5-0.4l-0.6-0.4l-0.6-0.3l-0.7-0.3   l-0.7-0.3L80,32l-0.4-0.1l-0.4-0.1l-0.4-0.1l-0.4-0.1l-0.5-0.1l-0.5-0.1l-0.5-0.1l-0.5-0.1l-0.5-0.1L75.4,31L75,30.9l-0.4-0.1   l-0.4-0.1l-0.3-0.1l-0.3-0.1l-0.3-0.1l-0.5-0.1l-0.4-0.1l-0.4-0.2l-0.3-0.2l-0.3-0.2L71,29.6l-0.2-0.2l-0.2-0.2L70.5,29l-0.1-0.2   l-0.1-0.2l-0.1-0.3L70.1,28l-0.1-0.3l0-0.4l0-0.4l0-0.4l0.1-0.4l0.1-0.3l0.1-0.3c2.4-3.9,8.9-2.2,12.3-0.2l0.4,0.3l0.4,0.3l0.6,0.5   h1.4v-6l-1-0.4L84,19.8l-0.5-0.2L83,19.4c-2.2-0.8-4.8-1.3-7.2-1.3C71.9,18.1,68.2,19.4,65.9,22.8 M8.3,22.1   c0-7.6,6.2-13.8,13.8-13.8S36,14.5,36,22.1C36,29.8,29.8,36,22.1,36S8.3,29.8,8.3,22.1 M0,22.1c0,12.2,9.9,22.1,22.1,22.1   c12.2,0,22.1-9.9,22.1-22.1S34.3,0,22.1,0C9.9,0,0,9.9,0,22.1"/>
</g>
</svg>